<?xml version='1.0' encoding='UTF-8'?>
<svg xmlns="http://www.w3.org/2000/svg" version="1.1" viewBox="0 0 125.6900000000004 75.0" width="125.6900000000004" height="75.0">
  <g transform="translate(-679.39, -318.82)">
    <ns0:path xmlns:ns0="http://www.w3.org/2000/svg" d="m792.93 318.82h-102.49c-6.09 0-11.05 4.96-11.05 11.05v52.9c0 6.09 4.96 11.05 11.05 11.05h101.87c7.04 0 12.77-5.73 12.77-12.77v-50.08c0-6.7-5.45-12.15-12.15-12.15zm10.14 62.23c0 5.94-4.83 10.77-10.77 10.77h-101.87c-4.99 0-9.05-4.06-9.05-9.05v-52.9c0-4.99 4.06-9.05 9.05-9.05h102.49c5.6 0 10.15 4.55 10.15 10.15z"/>
    <ns1:polygon xmlns:ns1="http://www.w3.org/2000/svg" points="773.49 330.81 767.46 330.81 767.46 332.81 771.21 332.81 747.47 348.8 747.47 344.79 745.47 344.79 745.47 349.8 739.45 349.8 739.45 351.8 743.02 351.8 719.5 367.64 719.5 362.99 717.5 362.99 717.5 368 711.48 368 711.48 370 717.5 370 717.5 375.01 719.5 375.01 719.5 370 725.5 370 725.5 368 722.55 368 745.47 352.56 745.47 356.81 747.47 356.81 747.47 351.8 753.47 351.8 753.47 349.8 749.56 349.8 773.49 333.69 773.49 337.82 775.49 337.82 775.49 332.81 781.48 332.81 781.48 330.81 775.49 330.81 775.49 325.8 773.49 325.8"/>
    <ns2:polygon xmlns:ns2="http://www.w3.org/2000/svg" points="705.92 339.47 710.79 340.76 703.69 327.13 696.6 341.16 701.92 339.53 702.01 383.81 749.27 383.81 747.51 388.85 761.48 381.93 747.58 374.04 749.21 379.81 706 379.81"/>
  </g>
</svg>
