<?xml version="1.0" encoding="UTF-8"?>
<svg width="126.02" height="74.39" version="1.1" viewBox="0 0 126.02 74.39" xmlns="http://www.w3.org/2000/svg"><g transform="translate(-678.99 -417.81)"><path d="m742.18 442.53c4.22 0 7.63-3.44 7.63-7.68s-3.42-7.68-7.63-7.68-7.63 3.44-7.63 7.68 3.42 7.68 7.63 7.68z"/><path d="m783.75 458.48c-1.59-2.6-3.63-5.34-6.01-7.99 0.97-1.29 1.55-2.88 1.55-4.62 0-4.24-3.42-7.68-7.63-7.68-2.18 0-4.14 0.93-5.54 2.4-2.93-1.83-6.03-3.32-9.21-4.23l-0.55 1.92c2.9 0.83 5.79 2.22 8.57 3.96-0.58 1.08-0.91 2.32-0.91 3.63 0 4.24 3.42 7.68 7.63 7.68 1.76 0 3.38-0.61 4.67-1.62 2.22 2.47 4.15 5.03 5.66 7.49l-39.93 21.39-40.22-21.71c1.76-2.5 3.74-4.9 5.87-7.14 1.3 1.03 2.93 1.65 4.71 1.65 4.21 0 7.63-3.44 7.63-7.68 0-1.27-0.31-2.47-0.86-3.53 2.87-1.81 5.73-3.21 8.44-4.06l-0.6-1.91c-2.92 0.92-5.97 2.39-9 4.3-1.4-1.53-3.39-2.49-5.62-2.49-4.21 0-7.63 3.44-7.63 7.68 0 1.72 0.57 3.3 1.52 4.58-2.25 2.38-4.36 4.94-6.24 7.64l-4.83-2.61-1.9 3.52 48.71 26.29 48.87-26.17-1.89-3.53-5.27 2.82z"/></g></svg>
