<?xml version='1.0' encoding='UTF-8'?>
<svg xmlns="http://www.w3.org/2000/svg" version="1.1" viewBox="0 0 127.61000000000024 77.49000000000001" width="127.61000000000024" height="77.49000000000001">
  <g transform="translate(-677.93, -218.81)">
    <ns0:path xmlns:ns0="http://www.w3.org/2000/svg" d="m792.66 218.81h-101.86c-7.1 0-12.87 5.77-12.87 12.87v50.57c0 7.75 6.31 14.05 14.06 14.05h99.56c7.71 0 13.99-6.27 13.99-13.98v-50.64c0-7.1-5.77-12.87-12.87-12.87zm10.87 63.51c0 6.61-5.38 11.98-11.99 11.98h-99.56c-6.65 0-12.06-5.41-12.06-12.05v-50.57c0-5.99 4.88-10.87 10.87-10.87h101.86c5.99 0 10.87 4.88 10.87 10.87v50.64z"/>
    <ns1:path xmlns:ns1="http://www.w3.org/2000/svg" d="m738.4 261.67c2.69 0 4.88-2.13 4.88-4.75s-2.18-4.75-4.88-4.75-4.88 2.13-4.88 4.75 2.18 4.75 4.88 4.75z"/>
    <ns2:ellipse xmlns:ns2="http://www.w3.org/2000/svg" cx="755.48" cy="256.86" rx="4.88" ry="4.75"/>
    <ns3:ellipse xmlns:ns3="http://www.w3.org/2000/svg" cx="772.89" cy="256.73" rx="4.88" ry="4.75"/>
    <ns4:path xmlns:ns4="http://www.w3.org/2000/svg" d="m790.16 251.65c-2.69 0-4.88 2.13-4.88 4.75 0 0.67 0.15 1.31 0.4 1.88 0.58 1.99 2.44 3.46 4.67 3.46 2.69 0 4.88-2.13 4.88-4.75 0-0.67-0.15-1.31-0.4-1.88-0.58-1.99-2.44-3.46-4.67-3.46z"/>
    <ns5:ellipse xmlns:ns5="http://www.w3.org/2000/svg" cx="790.23" cy="266.49" rx="4.88" ry="4.75"/>
    <ns6:path xmlns:ns6="http://www.w3.org/2000/svg" d="m768.12 266.32c0 2.62 2.18 4.75 4.88 4.75s4.88-2.13 4.88-4.75-2.18-4.75-4.88-4.75-4.88 2.13-4.88 4.75z"/>
    <ns7:path xmlns:ns7="http://www.w3.org/2000/svg" d="m755.55 271.17c2.69 0 4.88-2.13 4.88-4.75s-2.18-4.75-4.88-4.75-4.88 2.13-4.88 4.75 2.18 4.75 4.88 4.75z"/>
    <ns8:path xmlns:ns8="http://www.w3.org/2000/svg" d="m738.39 271.27c2.69 0 4.88-2.13 4.88-4.75s-2.18-4.75-4.88-4.75-4.88 2.13-4.88 4.75 2.18 4.75 4.88 4.75z"/>
    <ns9:path xmlns:ns9="http://www.w3.org/2000/svg" d="m755.64 281.16c2.69 0 4.88-2.13 4.88-4.75s-2.18-4.75-4.88-4.75-4.88 2.13-4.88 4.75 2.18 4.75 4.88 4.75z"/>
    <ns10:path xmlns:ns10="http://www.w3.org/2000/svg" d="m772.85 281.16c2.69 0 4.88-2.13 4.88-4.75s-2.18-4.75-4.88-4.75-4.88 2.13-4.88 4.75 2.18 4.75 4.88 4.75z"/>
    <ns11:path xmlns:ns11="http://www.w3.org/2000/svg" d="m790.26 280.91c2.69 0 4.88-2.13 4.88-4.75s-2.18-4.75-4.88-4.75-4.88 2.13-4.88 4.75 2.18 4.75 4.88 4.75z"/>
    <ns12:path xmlns:ns12="http://www.w3.org/2000/svg" d="m790.31 281.45c-2.69 0-4.88 2.13-4.88 4.75s2.18 4.75 4.88 4.75 4.88-2.13 4.88-4.75-2.18-4.75-4.88-4.75z"/>
    <ns13:path xmlns:ns13="http://www.w3.org/2000/svg" d="m773.05 281.65c-2.69 0-4.88 2.13-4.88 4.75s2.18 4.75 4.88 4.75 4.88-2.13 4.88-4.75-2.18-4.75-4.88-4.75z"/>
    <ns14:path xmlns:ns14="http://www.w3.org/2000/svg" d="m755.69 281.7c-2.69 0-4.88 2.13-4.88 4.75s2.18 4.75 4.88 4.75 4.88-2.13 4.88-4.75-2.18-4.75-4.88-4.75z"/>
    <ns15:path xmlns:ns15="http://www.w3.org/2000/svg" d="m738.44 281.8c-2.69 0-4.88 2.13-4.88 4.75s2.18 4.75 4.88 4.75 4.88-2.13 4.88-4.75-2.18-4.75-4.88-4.75z"/>
    <ns16:path xmlns:ns16="http://www.w3.org/2000/svg" d="m738.44 271.76c-2.69 0-4.88 2.13-4.88 4.75s2.18 4.75 4.88 4.75 4.88-2.13 4.88-4.75-2.18-4.75-4.88-4.75z"/>
    <ns17:path xmlns:ns17="http://www.w3.org/2000/svg" d="m687.49 251.17h108.1v-21.36h-108.1zm3-18.35h102.1v15.36h-102.1z"/>
    <ns18:polygon xmlns:ns18="http://www.w3.org/2000/svg" points="700.49 257.3 695.56 257.3 695.56 259.3 700.49 259.3 700.48 264.8 702.48 264.8 702.49 259.3 707.48 259.3 707.48 257.3 702.49 257.3 702.49 252.8 700.49 252.8"/>
    <ns19:rect xmlns:ns19="http://www.w3.org/2000/svg" x="715.48" y="259.81" width="7" height="2"/>
    <ns20:path xmlns:ns20="http://www.w3.org/2000/svg" d="m706.64 277.03h-2.53l-2.11 3.01c-0.28 0.39-0.61 0.85-0.97 1.38-0.23-0.4-0.53-0.87-0.88-1.42l-1.91-2.97h-2.66l4.23 6.09-4.59 6.58h2.58l3.31-5.01 0.67 1.06 2.59 3.95h2.61l-4.67-6.72 4.34-5.95z"/>
    <ns21:path xmlns:ns21="http://www.w3.org/2000/svg" d="m717.69 281.8c0 0.67 0.55 1.22 1.22 1.22s1.22-0.55 1.22-1.22-0.55-1.22-1.22-1.22-1.22 0.55-1.22 1.22z"/>
    <ns22:path xmlns:ns22="http://www.w3.org/2000/svg" d="m718.91 286.41c-0.67 0-1.22 0.55-1.22 1.22s0.55 1.22 1.22 1.22 1.22-0.55 1.22-1.22-0.55-1.22-1.22-1.22z"/>
    <ns23:rect xmlns:ns23="http://www.w3.org/2000/svg" x="713.48" y="283.81" width="11.03" height="1"/>
  </g>
</svg>
