<?xml version='1.0' encoding='UTF-8'?>
<svg xmlns="http://www.w3.org/2000/svg" version="1.1" viewBox="0 0 126.01000000000003 74.43000000000012" width="126.01000000000003" height="74.43000000000012">
  <g transform="translate(-51.479999999999976, -319.79999999999984)">
    <ns0:path xmlns:ns0="http://www.w3.org/2000/svg" d="m167.53 319.81h-104.54c-6.35 0-11.51 5.16-11.51 11.51v50.82c0 6.67 5.42 12.09 12.09 12.09h102.34c6.38 0 11.58-5.19 11.58-11.58v-52.89c0-5.49-4.47-9.96-9.96-9.96zm7.95 62.84c0 5.28-4.3 9.58-9.58 9.58h-102.33c-5.56 0-10.09-4.53-10.09-10.09v-50.82c0-5.24 4.27-9.51 9.51-9.51h104.54c4.39 0 7.96 3.57 7.96 7.96v52.89z"/>
    <ns1:path xmlns:ns1="http://www.w3.org/2000/svg" d="m103.05 349.7c-1.08 0.51-1.89 1.26-2.41 2.23-0.53 0.97-0.79 2.44-0.79 4.39v2.64h-3.96v3.28h3.96v21.57h4.45v-21.57h5.14v-3.28h-5.14v-2.29c0-1.51 0.29-2.54 0.86-3.08s1.53-0.81 2.86-0.81c0.83 0 1.7 0.08 2.63 0.23l0.67-3.65c-1.52-0.3-2.91-0.44-4.19-0.44-1.64 0-3 0.26-4.08 0.77z"/>
    <ns2:path xmlns:ns2="http://www.w3.org/2000/svg" d="m129.09 332.7c-0.51-0.52-1.19-0.94-2.02-1.26s-1.74-0.48-2.73-0.48c-1.26 0-2.38 0.25-3.36 0.75s-1.8 1.26-2.47 2.28v-2.62h-2.81v18.53h3.1v-10.13c0-2.24 0.44-3.81 1.33-4.73s2.07-1.38 3.56-1.38c0.79 0 1.48 0.17 2.08 0.52 0.6 0.34 1.04 0.83 1.32 1.46s0.42 1.62 0.42 2.99v11.29h3.1v-11.39c0-1.71-0.13-2.98-0.38-3.8-0.25-0.83-0.64-1.5-1.15-2.02z"/>
  </g>
</svg>
