<?xml version="1.0" encoding="UTF-8"?>
<svg width="125.57" height="74.5" version="1.1" viewBox="0 0 125.57 74.5" xmlns="http://www.w3.org/2000/svg"><g transform="translate(-887.92 -220.32)"><rect transform="rotate(-73.94)" x="-.39786" y="980.08" width="27.99" height="2.5"/><path d="m937.37 234.71v20.16h3.12v-25.88h-2.03c-0.53 1.12-1.46 2.28-2.77 3.46-1.32 1.18-2.83 2.19-4.55 3.01v3.06c1.01-0.38 2.12-0.93 3.33-1.66s2.17-1.45 2.89-2.15z"/><path d="m960.49 273.28c-2.49 2.08-4.2 3.88-5.14 5.4s-1.38 2.9-1.34 4.13h16.77v-3.04h-12.45c0.34-0.58 0.78-1.15 1.32-1.72s1.74-1.65 3.6-3.24c2.91-2.51 4.89-4.52 5.93-6.02s1.56-3.08 1.56-4.72c0-1.85-0.67-3.5-1.99-4.95-1.33-1.45-3.29-2.18-5.88-2.18-2.38 0-4.29 0.62-5.75 1.87s-2.3 3.11-2.52 5.58l3.21 0.33c0-1.67 0.46-2.95 1.39-3.84s2.12-1.34 3.56-1.34c1.35 0 2.49 0.41 3.41 1.24s1.38 1.9 1.38 3.21c0 1.14-0.45 2.37-1.35 3.69s-2.81 3.19-5.72 5.6z"/></g></svg>
