<?xml version='1.0' encoding='UTF-8'?>
<svg xmlns="http://www.w3.org/2000/svg" version="1.1" viewBox="0 0 121.02000000000021 72.4100000000002" width="121.02000000000021" height="72.4100000000002">
  <g transform="translate(-262.4699999999999, -320.3999999999999)">
    <ns0:path xmlns:ns0="http://www.w3.org/2000/svg" d="m273.74 392.81h98.48c6.21 0 11.27-5.05 11.27-11.27v-49.87c0-6.21-5.05-11.27-11.27-11.27h-98.48c-6.21 0-11.27 5.05-11.27 11.27v49.87c0 6.21 5.05 11.27 11.27 11.27zm-9.27-61.13c0-5.11 4.16-9.27 9.27-9.27h98.48c5.11 0 9.27 4.16 9.27 9.27v49.87c0 5.11-4.16 9.27-9.27 9.27h-98.48c-5.11 0-9.27-4.16-9.27-9.27z"/>
    <ns1:path xmlns:ns1="http://www.w3.org/2000/svg" d="m333.59 377.44c-1.08 0.51-2.18 0.93-3.3 1.27-0.89-3.2-3.77-5.56-7.19-5.56s-6.26 2.32-7.17 5.48c-9.93-3.15-17.16-12.57-17.16-23.66h-2c0 12.1 7.97 22.34 18.86 25.66v0.15c0 4.21 3.35 7.63 7.48 7.63s7.48-3.42 7.48-7.63v-0.06c1.32-0.39 2.61-0.87 3.87-1.47l-0.86-1.81zm-10.49-2.28c2.49 0 4.6 1.72 5.26 4.06-1.67 0.36-3.38 0.55-5.13 0.55-1.85 0-3.64-0.22-5.37-0.61 0.68-2.31 2.77-4 5.24-4zm0 11.25c-2.9 0-5.27-2.32-5.46-5.25 1.8 0.39 3.67 0.61 5.59 0.61 1.81 0 3.59-0.19 5.33-0.55-0.22 2.9-2.58 5.19-5.46 5.19z"/>
    <ns2:path xmlns:ns2="http://www.w3.org/2000/svg" d="m340.74 372.3 1.44 1.39c2.6-2.7 4.58-5.85 5.87-9.37l-1.88-0.69c-1.2 3.25-3.02 6.17-5.43 8.67z"/>
    <ns3:path xmlns:ns3="http://www.w3.org/2000/svg" d="m323.23 330.19c7.22 0 13.71 3.18 18.19 8.23-1.62 1.4-2.66 3.49-2.66 5.82 0 4.21 3.35 7.63 7.48 7.63 0.42 0 0.84-0.04 1.24-0.11 0.14 1.05 0.21 2.13 0.21 3.22h2c0-1.3-0.1-2.58-0.28-3.84 2.54-1.22 4.3-3.85 4.3-6.89 0-4.21-3.35-7.63-7.48-7.63-1.12 0-2.17 0.26-3.13 0.71-4.85-5.6-11.97-9.14-19.89-9.14-3.68 0-7.24 0.75-10.58 2.23l0.81 1.83c3.09-1.37 6.38-2.06 9.77-2.06zm23.01 19.68c-3.02 0-5.48-2.52-5.48-5.63 0-1.71 0.75-3.24 1.92-4.27 2.15 2.85 3.7 6.19 4.47 9.82-0.3 0.05-0.6 0.08-0.91 0.08zm0-11.25c3.02 0 5.48 2.52 5.48 5.63 0 2.05-1.08 3.84-2.68 4.83-0.83-3.73-2.43-7.17-4.62-10.13 0.57-0.21 1.18-0.33 1.82-0.33z"/>
    <ns4:path xmlns:ns4="http://www.w3.org/2000/svg" d="m300.06 351.74c4.12 0 7.48-3.42 7.48-7.63 0-2.26-0.98-4.29-2.51-5.69 0.68-0.77 1.4-1.49 2.17-2.17l-1.32-1.5c-0.89 0.79-1.73 1.64-2.5 2.53-1-0.51-2.12-0.8-3.31-0.8-4.12 0-7.48 3.42-7.48 7.63s3.35 7.63 7.48 7.63zm0-13.25c0.72 0 1.4 0.15 2.03 0.4-1.44 1.94-2.64 4.07-3.51 6.33l1.87 0.72c0.82-2.13 1.95-4.14 3.32-5.96 1.09 1.03 1.77 2.5 1.77 4.13 0 3.1-2.46 5.63-5.48 5.63s-5.48-2.52-5.48-5.63 2.46-5.63 5.48-5.63z"/>
    <ns5:polygon xmlns:ns5="http://www.w3.org/2000/svg" points="323.95 355.83 335.51 355.83 335.51 353.83 323.95 353.83 323.95 341.8 321.95 341.8 321.95 353.83 310.47 353.83 310.47 355.83 321.95 355.83 321.95 367.84 323.95 367.84"/>
  </g>
</svg>
