<?xml version='1.0' encoding='UTF-8'?>
<svg xmlns="http://www.w3.org/2000/svg" version="1.1" viewBox="0 0 75.00000000000136 75.03000000000007" width="75.00000000000136" height="75.03000000000007">
  <g transform="translate(-1122.449999999999, -120.78999999999998)">
    <ns0:path xmlns:ns0="http://www.w3.org/2000/svg" d="m1134.5 195.82h50.9c6.64 0 12.05-5.4 12.05-12.05v-50.93c0-6.64-5.4-12.05-12.05-12.05h-50.9c-6.64 0-12.05 5.4-12.05 12.05v50.93c0 6.64 5.4 12.05 12.05 12.05zm-10.05-62.98c0-5.54 4.51-10.05 10.05-10.05h50.9c5.54 0 10.05 4.51 10.05 10.05v50.93c0 5.54-4.51 10.05-10.05 10.05h-50.9c-5.54 0-10.05-4.51-10.05-10.05z"/>
    <ns1:path xmlns:ns1="http://www.w3.org/2000/svg" d="m1152.1 187.09c0.37 0 0.75-0.06 1.13-0.19 1.4-0.48 2.3-1.74 2.3-3.22v-5.85s26.87-0.03 26.87-0.03c1.71 0 3.11-1.4 3.11-3.11l0.02-33.76c0-0.83-0.32-1.62-0.91-2.2-0.59-0.59-1.37-0.91-2.21-0.91h-26.92l-0.11-5.35c-0.03-1.41-0.92-2.62-2.26-3.07s-2.77-0.02-3.65 1.09l-21.63 27.45 21.6 27.84c0.66 0.86 1.64 1.32 2.66 1.32zm-0.68-52.62 0.15 7.35h29.96l-0.02 31.99-30 0.03v8.1l-18.6-23.98 18.51-23.48z"/>
    <ns2:path xmlns:ns2="http://www.w3.org/2000/svg" d="m1160.3 171.07h3.12v-6.17h3.44v-2.9h-3.44v-16.7h-2.55l-11.56 16.7v2.9h10.99zm-7.93-9.07 7.92-11.62v11.62z"/>
  </g>
</svg>
