<?xml version='1.0' encoding='UTF-8'?>
<svg xmlns="http://www.w3.org/2000/svg" version="1.1" viewBox="0 0 76.07000000000016 76.02000000000027" width="76.07000000000016" height="76.02000000000027">
  <g transform="translate(-494.4699999999999, -218.8099999999999)">
    <ns0:path xmlns:ns0="http://www.w3.org/2000/svg" d="m558.58 261.5h-0.02l-5.95 0.03-0.12-27.51c0-1.73-1.41-3.13-3.13-3.13l-34.22 0.09c-0.83 0-1.62 0.33-2.21 0.92-0.59 0.6-0.92 1.39-0.91 2.23l0.1 27.56-5.46 0.13c-1.42 0.04-2.62 0.93-3.07 2.28s-0.02 2.8 1.1 3.68l27.88 22 28.12-22.16c1.17-0.92 1.61-2.43 1.12-3.84-0.49-1.4-1.75-2.3-3.23-2.3zm-26.01 23.2-23.97-18.92 7.53-0.19-0.11-30.61 32.48-0.09 0.13 30.66 8.3-0.04-24.35 19.19z"/>
    <ns1:path xmlns:ns1="http://www.w3.org/2000/svg" d="m558.69 218.81h-52.37c-6.53 0-11.85 5.31-11.85 11.85v52.32c0 6.53 5.32 11.85 11.85 11.85h52.37c6.53 0 11.85-5.31 11.85-11.85v-52.32c0-6.53-5.31-11.85-11.85-11.85zm9.85 64.16c0 5.43-4.42 9.85-9.85 9.85h-52.37c-5.43 0-9.85-4.42-9.85-9.85v-52.32c0-5.43 4.42-9.85 9.85-9.85h52.37c5.43 0 9.85 4.42 9.85 9.85z"/>
    <ns2:path xmlns:ns2="http://www.w3.org/2000/svg" d="m527.65 265.31c0.55-0.58 1.78-1.68 3.67-3.28 2.97-2.54 4.99-4.58 6.05-6.11s1.59-3.12 1.59-4.78c0-1.88-0.68-3.55-2.04-5.02s-3.36-2.21-6-2.21c-2.43 0-4.38 0.63-5.87 1.9s-2.34 3.15-2.57 5.66l3.27 0.34c0-1.69 0.47-2.99 1.42-3.9s2.16-1.36 3.64-1.36c1.38 0 2.54 0.42 3.48 1.26s1.41 1.92 1.41 3.25c0 1.15-0.46 2.4-1.38 3.74s-2.87 3.23-5.84 5.68c-2.54 2.1-4.29 3.93-5.25 5.47-0.96 1.55-1.41 2.94-1.37 4.19h17.12v-3.08h-12.71c0.34-0.58 0.79-1.17 1.35-1.75z"/>
  </g>
</svg>
