<?xml version='1.0' encoding='UTF-8'?>
<svg xmlns="http://www.w3.org/2000/svg" version="1.1" viewBox="0 0 125.88000000000011 75.01000000000062" width="125.88000000000011" height="75.01000000000062">
  <g transform="translate(-888.04, -417.7999999999999)">
    <ns0:path xmlns:ns0="http://www.w3.org/2000/svg" d="m1002 417.8h-102.81c-6.15 0-11.15 5-11.15 11.15v51.94c0 6.58 5.35 11.92 11.92 11.92h102.04c6.58 0 11.92-5.35 11.92-11.92v-51.17c0-6.58-5.35-11.92-11.92-11.92zm9.92 63.08c0 5.47-4.45 9.92-9.92 9.92h-102.04c-5.47 0-9.92-4.45-9.92-9.92v-51.94c0-5.05 4.11-9.15 9.15-9.15h102.81c5.47 0 9.92 4.45 9.92 9.92z"/>
    <ns1:path xmlns:ns1="http://www.w3.org/2000/svg" d="m959.43 469.58h-7.95v-22.95c5.52-0.55 9.83-5.23 9.83-10.92 0-6.06-4.89-10.98-10.93-10.98s-10.93 4.92-10.93 10.98 4.41 10.47 10.02 10.93v22.94h-7.8l8.06 13.74h-17.22v2h35.05v-2h-16.17l8.03-13.74z"/>
  </g>
</svg>
