<?xml version='1.0' encoding='UTF-8'?>
<svg xmlns="http://www.w3.org/2000/svg" version="1.1" viewBox="0 0 118.01000000000022 75.03" width="118.01000000000022" height="75.03">
  <g transform="translate(-683.47, -22.769999999999996)">
    <ns0:path xmlns:ns0="http://www.w3.org/2000/svg" d="m695.69 97.8h93.05c7.02 0 12.74-5.71 12.74-12.74v-50.49c0-6.5-5.29-11.8-11.8-11.8h-94.77c-6.31 0-11.44 5.13-11.44 11.44v51.35c0 6.74 5.48 12.22 12.22 12.22zm-10.22-63.57c0-5.21 4.24-9.44 9.44-9.44h94.77c5.4 0 9.8 4.4 9.8 9.8v50.49c0 5.92-4.82 10.74-10.74 10.74h-93.05c-5.64 0-10.22-4.59-10.22-10.22v-51.35z"/>
    <ns1:path xmlns:ns1="http://www.w3.org/2000/svg" d="m746.47 63.79v4.04h2v-4.02c5.69-0.42 10.23-5.14 10.56-11.01h4.44v-2h-4.48c-0.61-5.57-5.03-9.97-10.52-10.37v-4.64h-2v4.66c-5.31 0.57-9.55 4.9-10.15 10.35h-4.83v2h4.78c0.32 5.75 4.67 10.4 10.19 10.99zm-8.19-10.99h8.19v8.97c-4.42-0.58-7.88-4.33-8.19-8.97zm10.19 9.01v-9.01h8.56c-0.32 4.77-3.97 8.6-8.56 9.01zm8.5-11.01h-8.5v-8.37c4.38 0.39 7.91 3.9 8.5 8.37zm-10.5-8.33v8.32h-8.13c0.57-4.34 3.92-7.77 8.13-8.32z"/>
    <ns2:polygon xmlns:ns2="http://www.w3.org/2000/svg" points="754.8 81.42 765.41 76.23 755.2 70.22 756.49 74.78 724.48 74.8 724.48 44.6 727.95 45.81 722.74 35.49 717.57 45.84 721.48 44.52 721.48 77.8 756.34 77.78"/>
  </g>
</svg>
