<?xml version='1.0' encoding='UTF-8'?>
<svg xmlns="http://www.w3.org/2000/svg" version="1.1" viewBox="0 0 118.06000000000023 74.01000000000003" width="118.06000000000023" height="74.01000000000003">
  <g transform="translate(-473.4899999999997, -21.819999999999993)">
    <ns0:path xmlns:ns0="http://www.w3.org/2000/svg" d="m485.61 95.83h94.93c6.07 0 11.01-4.94 11.01-11.01v-51.99c0-6.07-4.94-11.01-11.01-11.01h-94.55c-6.89 0-12.5 5.61-12.5 12.5v49.39c0 6.68 5.44 12.12 12.12 12.12zm-10.12-61.51c0-5.79 4.71-10.5 10.5-10.5h94.55c4.97 0 9.01 4.04 9.01 9.01v51.99c0 4.97-4.04 9.01-9.01 9.01h-94.93c-5.58 0-10.12-4.54-10.12-10.12z"/>
    <ns1:rect xmlns:ns1="http://www.w3.org/2000/svg" x="502.47" y="56.8" width="63.89" height="4"/>
    <ns2:rect xmlns:ns2="http://www.w3.org/2000/svg" x="519.51" y="27.92" width="3.1" height="3.61"/>
    <ns3:rect xmlns:ns3="http://www.w3.org/2000/svg" x="519.51" y="34.97" width="3.1" height="18.53"/>
    <ns4:path xmlns:ns4="http://www.w3.org/2000/svg" d="m530.57 43.37c0-2.24 0.44-3.81 1.33-4.73s2.07-1.38 3.56-1.38c0.79 0 1.48 0.17 2.08 0.52 0.6 0.34 1.04 0.83 1.32 1.46s0.42 1.62 0.42 2.99v11.28h3.1v-11.4c0-1.71-0.13-2.98-0.38-3.8-0.25-0.83-0.64-1.5-1.15-2.02s-1.19-0.94-2.02-1.26-1.74-0.48-2.73-0.48c-1.26 0-2.38 0.25-3.36 0.75s-1.8 1.26-2.47 2.28v-2.62h-2.81v18.53h3.1v-10.13z"/>
    <ns5:path xmlns:ns5="http://www.w3.org/2000/svg" d="m527.55 66.55c-1.16 0-2.21 0.27-3.16 0.81s-1.8 1.35-2.53 2.42c-0.38-1.05-1.01-1.85-1.91-2.4-0.89-0.55-1.98-0.82-3.27-0.82-1.15 0-2.21 0.26-3.18 0.78s-1.76 1.26-2.38 2.22v-2.58h-2.78v18.53h3.1v-9.63c0-2.52 0.41-4.25 1.23-5.2s1.94-1.42 3.36-1.42c1 0 1.78 0.31 2.35 0.94s0.85 1.71 0.85 3.25v12.05h3.1v-10.78c0-1.89 0.42-3.27 1.27-4.15s1.94-1.32 3.29-1.32c0.65 0 1.24 0.15 1.76 0.45s0.9 0.73 1.13 1.28 0.35 1.49 0.35 2.82v11.69h3.1v-12.72c0-2.18-0.51-3.76-1.52-4.75-1.02-0.99-2.41-1.48-4.17-1.48z"/>
    <ns6:path xmlns:ns6="http://www.w3.org/2000/svg" d="m557.02 66.55c-1.16 0-2.21 0.27-3.16 0.81s-1.8 1.35-2.53 2.42c-0.38-1.05-1.01-1.85-1.91-2.4-0.89-0.55-1.98-0.82-3.27-0.82-1.15 0-2.21 0.26-3.18 0.78s-1.76 1.26-2.38 2.22v-2.58h-2.78v18.53h3.1v-9.63c0-2.52 0.41-4.25 1.23-5.2s1.94-1.42 3.36-1.42c1 0 1.78 0.31 2.35 0.94s0.85 1.71 0.85 3.25v12.05h3.1v-10.78c0-1.89 0.42-3.27 1.27-4.15s1.94-1.32 3.29-1.32c0.65 0 1.24 0.15 1.76 0.45s0.9 0.73 1.13 1.28 0.35 1.49 0.35 2.82v11.69h3.1v-12.72c0-2.18-0.51-3.76-1.52-4.75-1.02-0.99-2.41-1.48-4.17-1.48z"/>
  </g>
</svg>
