<?xml version='1.0' encoding='UTF-8'?>
<svg xmlns="http://www.w3.org/2000/svg" version="1.1" viewBox="0 0 76.5100000000001 76.92000000000007" width="76.5100000000001" height="76.92000000000007">
  <g transform="translate(-494.94000000000005, -119.80999999999997)">
    <ns0:path xmlns:ns0="http://www.w3.org/2000/svg" d="m571.44 132.91c0-7.22-5.88-13.1-13.1-13.1h-51.03c-6.82 0-12.37 5.55-12.37 12.37v51.77c0 7.05 5.73 12.78 12.78 12.78h50.13c7.5 0 13.6-6.1 13.6-13.6v-50.22zm-2 50.21c0 6.4-5.2 11.6-11.6 11.6h-50.13c-5.94 0-10.78-4.83-10.78-10.78v-51.77c0-5.72 4.65-10.37 10.37-10.37h51.03c6.12 0 11.1 4.98 11.1 11.1v50.22z"/>
    <ns1:path xmlns:ns1="http://www.w3.org/2000/svg" d="m533.88 152.11c-3.2 0-5.79 2.66-5.79 5.93s2.59 5.93 5.79 5.93 5.79-2.66 5.79-5.93-2.59-5.93-5.79-5.93z"/>
  </g>
</svg>
