<?xml version='1.0' encoding='UTF-8'?>
<svg xmlns="http://www.w3.org/2000/svg" version="1.1" viewBox="0 0 74.53000000000088 76.0" width="74.53000000000088" height="76.0">
  <g transform="translate(-1122.9299999999992, -21.809999999999995)">
    <ns0:path xmlns:ns0="http://www.w3.org/2000/svg" d="m1135.8 97.81h48.91c7.03 0 12.75-5.72 12.75-12.75v-51.5c0-6.48-5.27-11.75-11.75-11.75h-51.03c-6.48 0-11.75 5.27-11.75 11.75v51.38c0 7.1 5.77 12.87 12.87 12.87zm-10.87-64.25c0-5.38 4.37-9.75 9.75-9.75h51.03c5.38 0 9.75 4.37 9.75 9.75v51.5c0 5.93-4.82 10.75-10.75 10.75h-48.91c-5.99 0-10.87-4.88-10.87-10.87z"/>
    <ns1:path xmlns:ns1="http://www.w3.org/2000/svg" d="m1157.7 72.86c2.74 0 4.81-1.12 6.2-3.35s2.09-5.5 2.09-9.8c0-4.79-0.84-8.28-2.53-10.46-1.39-1.8-3.3-2.71-5.72-2.71-2.73 0-4.79 1.11-6.19 3.34s-2.1 5.5-2.1 9.83c0 4.83 0.77 8.23 2.31 10.2s3.52 2.95 5.94 2.95zm-3.63-21.55c0.95-1.44 2.13-2.16 3.54-2.16 1.54 0 2.79 0.71 3.75 2.13 0.97 1.42 1.45 4.23 1.45 8.43s-0.48 6.95-1.44 8.39-2.15 2.16-3.57 2.16c-1.51 0-2.74-0.71-3.71-2.14-0.96-1.43-1.45-4.23-1.45-8.42s0.48-6.95 1.43-8.39z"/>
  </g>
</svg>
