<?xml version='1.0' encoding='UTF-8'?>
<svg xmlns="http://www.w3.org/2000/svg" version="1.1" viewBox="0 0 77.99000000000001 77.03000000000014" width="77.99000000000001" height="77.03000000000014">
  <g transform="translate(-284.47, -218.76999999999987)">
    <ns0:path xmlns:ns0="http://www.w3.org/2000/svg" d="m296.85 252.27 5.62 0.14-0.1 28.2c0 0.84 0.32 1.64 0.91 2.24s1.39 0.94 2.24 0.94l34.99 0.1h0.01c1.73 0 3.15-1.41 3.16-3.15l0.12-28.16 6.13 0.03h0.02c1.49 0 2.76-0.91 3.26-2.32 0.5-1.42 0.05-2.94-1.13-3.87l-28.73-22.62-28.49 22.46c-1.13 0.89-1.56 2.35-1.11 3.72 0.45 1.36 1.67 2.26 3.1 2.3zm26.5-23.39 25.03 19.71-8.57-0.04-0.14 31.33-33.31-0.09 0.12-31.28-7.78-0.19 24.64-19.43z"/>
    <ns1:path xmlns:ns1="http://www.w3.org/2000/svg" d="m284.47 283.29c0 6.9 5.61 12.51 12.51 12.51h52.97c6.9 0 12.51-5.61 12.51-12.51v-52.01c0-6.9-5.61-12.51-12.51-12.51h-52.97c-6.9 0-12.51 5.61-12.51 12.51zm2-52.01c0-5.79 4.71-10.51 10.51-10.51h52.97c5.79 0 10.51 4.71 10.51 10.51v52.01c0 5.79-4.71 10.51-10.51 10.51h-52.97c-5.79 0-10.51-4.71-10.51-10.51z"/>
    <ns2:path xmlns:ns2="http://www.w3.org/2000/svg" d="m313.83 258.72c-0.87 1.14-1.3 2.58-1.3 4.32 0 2.39 0.81 4.32 2.44 5.79s3.66 2.2 6.1 2.2 4.43-0.73 6.06-2.2 2.44-3.37 2.44-5.7c0-1.69-0.42-3.1-1.26-4.24s-2.04-1.97-3.61-2.48c1.28-0.49 2.23-1.17 2.86-2.04s0.95-1.94 0.95-3.2c0-2.01-0.71-3.64-2.14-4.91-1.42-1.27-3.21-1.91-5.36-1.91s-3.91 0.62-5.32 1.87-2.12 2.86-2.12 4.84c0 1.32 0.32 2.42 0.97 3.3s1.61 1.56 2.88 2.04c-1.54 0.4-2.74 1.17-3.61 2.31zm3.01-7.74c0-1.14 0.41-2.09 1.24-2.85 0.82-0.76 1.81-1.14 2.95-1.14s2.14 0.39 2.98 1.16c0.84 0.78 1.26 1.78 1.26 3s-0.41 2.15-1.22 2.9c-0.82 0.75-1.8 1.12-2.96 1.12s-2.19-0.38-3.01-1.14-1.22-1.78-1.22-3.06zm0.46 8.3c1.01-0.97 2.24-1.46 3.69-1.46s2.72 0.49 3.76 1.47c1.05 0.98 1.57 2.27 1.57 3.88s-0.51 2.86-1.53 3.81-2.26 1.43-3.72 1.43-2.69-0.49-3.73-1.47-1.56-2.27-1.56-3.88 0.51-2.8 1.52-3.78z"/>
  </g>
</svg>
