<?xml version='1.0' encoding='UTF-8'?>
<svg xmlns="http://www.w3.org/2000/svg" version="1.1" viewBox="0 0 120.01 75.01000000000002" width="120.01" height="75.01000000000002">
  <g transform="translate(-54.469999999999985, -21.79999999999999)">
    <ns0:path xmlns:ns0="http://www.w3.org/2000/svg" d="m67.16 96.81h94.63c6.99 0 12.69-5.69 12.69-12.69v-49.63c0-6.99-5.69-12.69-12.69-12.69h-94.63c-6.99 0-12.69 5.69-12.69 12.69v49.63c0 6.99 5.69 12.69 12.69 12.69zm-10.68-62.31c0-5.89 4.79-10.69 10.69-10.69h94.63c5.89 0 10.69 4.79 10.69 10.69v49.63c0 5.89-4.79 10.69-10.69 10.69h-94.63c-5.89 0-10.69-4.79-10.69-10.69z"/>
    <ns1:path xmlns:ns1="http://www.w3.org/2000/svg" d="m73.98 57.8h10.57v8.97h-9.32c-0.28 0-0.54 0.16-0.67 0.41s-0.1 0.55 0.06 0.78c2.39 3.25 6.23 5.2 10.26 5.2 3.78 0 7.3-1.65 9.73-4.53h44.67c1.93 1.88 4.32 3.18 6.88 3.74 0.12 0.04 0.24 0.06 0.36 0.09 0.88 0.18 1.8 0.27 2.75 0.29h0.36c4.76-0.07 9.2-2.48 11.88-6.45 0.16-0.23 0.17-0.53 0.04-0.77-0.13-0.25-0.38-0.4-0.66-0.4h-12.49v-9.38h9.6c0.28 0 0.53-0.15 0.66-0.4s0.11-0.54-0.05-0.77c-2.16-3.15-5.74-5.04-9.56-5.04-4.39 0-8.4 2.49-10.36 6.38h-43.72c-2.43-3.43-6.36-5.47-10.57-5.47-4.56 0-8.7 2.33-11.07 6.22-0.14 0.23-0.15 0.52-0.01 0.76s0.38 0.38 0.65 0.38zm10.43-5.86c3.85 0 7.42 1.92 9.55 5.13 0.14 0.21 0.37 0.34 0.62 0.34h44.59c0.29 0 0.56-0.17 0.68-0.44 1.63-3.61 5.24-5.94 9.21-5.94 2.82 0 5.49 1.18 7.38 3.21h-8.79c-0.41 0-0.75 0.34-0.75 0.75v10.88c0 0.41 0.34 0.75 0.75 0.75h11.73c-2.44 2.86-5.99 4.56-9.76 4.61h-0.34c-0.84 0-1.67-0.09-2.46-0.25-0.08-0.02-0.14-0.03-0.28-0.07-2.43-0.54-4.65-1.77-6.42-3.56-0.14-0.14-0.33-0.22-0.53-0.22h-45.34c-0.23 0-0.45 0.1-0.59 0.28-2.14 2.7-5.34 4.25-8.78 4.25-3.09 0-5.95-1.22-8.05-3.39h8.46c0.41 0 0.75-0.34 0.75-0.75v-10.47c0-0.41-0.34-0.75-0.75-0.75h-9.89c2.16-2.75 5.44-4.36 9-4.36z"/>
  </g>
</svg>
