<?xml version='1.0' encoding='UTF-8'?>
<svg xmlns="http://www.w3.org/2000/svg" version="1.1" viewBox="0 0 76.46000000000043 76.00999999999999" width="76.46000000000043" height="76.00999999999999">
  <g transform="translate(-285.48, -120.79000000000002)">
    <ns0:path xmlns:ns0="http://www.w3.org/2000/svg" d="m299.04 196.8h49.86c7.19 0 13.04-5.85 13.04-13.04v-50.87c0-6.67-5.43-12.1-12.1-12.1h-51.87c-6.89 0-12.49 5.6-12.49 12.49v49.95c0 7.48 6.08 13.56 13.56 13.56zm-11.56-63.51c0-5.79 4.71-10.49 10.49-10.49h51.87c5.57 0 10.1 4.53 10.1 10.1v50.87c0 6.09-4.95 11.04-11.04 11.04h-49.86c-6.38 0-11.56-5.19-11.56-11.56v-49.95z"/>
    <ns0:rect xmlns:ns0="http://www.w3.org/2000/svg" transform="rotate(-45)" x="90.804" y="336.78" width="50.98" height="5"/>
    <ns0:polygon xmlns:ns0="http://www.w3.org/2000/svg" points="308 159.81 308 149.8 317.49 149.8 317.49 144.8 308 144.8 308 134.8 303 134.8 303 144.8 293.47 144.81 293.47 149.81 303 149.8 303 159.81"/>
    <ns0:rect xmlns:ns0="http://www.w3.org/2000/svg" x="327.47" y="168.8" width="24.89" height="5"/>
  </g>
</svg>
