<?xml version='1.0' encoding='UTF-8'?>
<svg xmlns="http://www.w3.org/2000/svg" version="1.1" viewBox="0 0 77.47000000000082 77.0" width="77.47000000000082" height="77.0">
  <g transform="translate(-912.0299999999992, -119.81)">
    <ns0:path xmlns:ns0="http://www.w3.org/2000/svg" d="m924.4 119.81c-6.82 0-12.37 5.55-12.37 12.37v52.26c0 6.82 5.55 12.37 12.37 12.37h52.73c6.82 0 12.37-5.55 12.37-12.37v-52.26c0-6.82-5.55-12.37-12.37-12.37zm63.11 12.37v52.26c0 5.72-4.65 10.37-10.37 10.37h-52.73c-5.72 0-10.37-4.65-10.37-10.37v-52.26c0-5.72 4.65-10.37 10.37-10.37h52.73c5.72 0 10.37 4.65 10.37 10.37z"/>
    <ns1:path xmlns:ns1="http://www.w3.org/2000/svg" d="m952.8 167.54c-1.2 1.06-2.65 1.59-4.34 1.59-2.16 0-3.93-0.79-5.31-2.39-1.38-1.59-2.07-4.16-2.07-7.72s0.72-5.96 2.16-7.54 3.26-2.37 5.46-2.37c1.47 0 2.73 0.44 3.78 1.31s1.79 2.19 2.21 3.95l4.33-0.64c-0.52-2.75-1.72-4.82-3.58-6.2-1.87-1.38-4.16-2.07-6.88-2.07-3.53 0-6.42 1.14-8.67 3.41s-3.37 5.68-3.37 10.22 1.11 7.92 3.34 10.22 5.07 3.46 8.52 3.46c2.84 0 5.28-0.82 7.31-2.46s3.29-4.02 3.8-7.13l-4.39-0.57c-0.32 2.23-1.08 3.87-2.28 4.93z"/>
  </g>
</svg>
