<?xml version="1.0" encoding="UTF-8"?>
<svg width="20.635mm" height="20.381mm" version="1.1" viewBox="0 0 20.635 20.381" xmlns="http://www.w3.org/2000/svg"><g transform="translate(-147.11 -146.58)"><path d="m157.02 163.44 0.037-1.487 7.4612 0.0265c0.22225 0 0.43392-0.0847 0.59267-0.24077 0.15875-0.15611 0.2487-0.36778 0.2487-0.59267l0.0265-9.2578v-3e-3c0-0.45773-0.37306-0.83344-0.83343-0.83608l-7.4507-0.0317 8e-3 -1.6219v-5e-3c0-0.39423-0.24077-0.73025-0.61384-0.86254-0.37571-0.13229-0.77787-0.0132-1.0239 0.29898l-5.9849 7.6015 5.9425 7.538c0.23548 0.29898 0.62177 0.41275 0.98425 0.29368 0.35984-0.11906 0.59796-0.44185 0.60854-0.8202zm-6.1886-7.0115 5.2149-6.6225-0.0106 2.2675 8.2894 0.037-0.0238 8.8133-8.2762-0.0318-0.0503 2.0585-5.1408-6.5193z" stroke-width=".26458"/><path transform="scale(.96052 1.0411)" d="m165.45 146.6v4.9341h1.119v0.78134h-1.119v1.7556h-0.9164v-1.7556h-3.4871v-0.73793q0.93087-1.0466 1.8714-2.4116 0.94051-1.3649 1.553-2.5659zm-3.3424 4.9341h2.426v-3.5595q-0.5016 0.90192-1.0756 1.7508-0.57396 0.84405-1.3505 1.8087z" stroke-width=".33052" aria-label="4"/></g></svg>
