<?xml version='1.0' encoding='UTF-8'?>
<svg xmlns="http://www.w3.org/2000/svg" version="1.1" viewBox="0 0 76.56000000000002 77.02000000000004" width="76.56000000000002" height="77.02000000000004">
  <g transform="translate(-75.92, -219.26)">
    <ns0:path xmlns:ns0="http://www.w3.org/2000/svg" d="m121.54 228.87c-1.34 0.46-2.23 1.66-2.26 3.07l-0.12 5.43h-27.62c-0.83 0-1.62 0.31-2.21 0.9-0.6 0.59-0.93 1.38-0.93 2.22l0.02 34.09c0 1.72 1.41 3.12 3.14 3.12l27.57 0.03v5.92c-0.01 1.48 0.89 2.74 2.29 3.23 0.38 0.13 0.77 0.2 1.16 0.2 1.03 0 2.01-0.46 2.68-1.32l22.11-28.11-22.15-27.72c-0.89-1.11-2.34-1.54-3.69-1.08zm1.59 53.15v-8.28l-30.71-0.03-0.02-32.35h30.67l0.16-7.51 19.04 23.83-19.15 24.34z"/>
    <ns1:path xmlns:ns1="http://www.w3.org/2000/svg" d="m88.02 219.26c-6.67 0-12.1 5.43-12.1 12.1v52.82c0 6.67 5.43 12.1 12.1 12.1h52.36c6.67 0 12.1-5.43 12.1-12.1v-52.82c0-6.67-5.43-12.1-12.1-12.1zm62.46 12.11v52.82c0 5.57-4.53 10.1-10.1 10.1h-52.36c-5.57 0-10.1-4.53-10.1-10.1v-52.82c0-5.57 4.53-10.1 10.1-10.1h52.36c5.57 0 10.1 4.53 10.1 10.1z"/>
    <ns2:path xmlns:ns2="http://www.w3.org/2000/svg" d="m112.72 254.08c-1.21 0-2.36 0.29-3.44 0.86-1.08 0.58-1.98 1.42-2.7 2.54 0.01-3.14 0.49-5.51 1.43-7.12 1.09-1.86 2.55-2.79 4.36-2.79 1.17 0 2.16 0.41 2.99 1.22 0.58 0.56 1.01 1.49 1.31 2.8l3.1-0.24c-0.28-2.06-1.07-3.64-2.37-4.72s-2.91-1.63-4.83-1.63c-2.65 0-4.83 1.05-6.53 3.15s-2.55 5.62-2.55 10.57c0 4.46 0.83 7.64 2.49 9.54 1.66 1.91 3.77 2.86 6.33 2.86 1.42 0 2.72-0.33 3.9-0.99s2.15-1.69 2.9-3.08 1.13-2.94 1.13-4.65c0-2.52-0.75-4.54-2.25-6.05s-3.25-2.26-5.26-2.26zm2.88 12.86c-0.96 1.06-2.06 1.59-3.28 1.59-1.39 0-2.62-0.56-3.67-1.68s-1.58-2.61-1.58-4.46c0-1.7 0.5-3.04 1.51-4.04 1.01-0.99 2.18-1.49 3.53-1.49s2.54 0.5 3.5 1.5 1.43 2.41 1.43 4.22-0.48 3.3-1.45 4.36z"/>
  </g>
</svg>
