<?xml version='1.0' encoding='UTF-8'?>
<svg xmlns="http://www.w3.org/2000/svg" version="1.1" viewBox="0 0 75.53999999999999 76.63000000000008" width="75.53999999999999" height="76.63000000000008">
  <g transform="translate(-76.95000000000002, -119.80999999999992)">
    <ns0:path xmlns:ns0="http://www.w3.org/2000/svg" d="m152.49 132.13c0-6.79-5.53-12.32-12.32-12.32h-50.9c-6.79 0-12.32 5.53-12.32 12.32v51.99c0 6.79 5.53 12.32 12.32 12.32h50.9c6.79 0 12.32-5.53 12.32-12.32zm-2 51.99c0 5.69-4.63 10.32-10.32 10.32h-50.9c-5.69 0-10.32-4.63-10.32-10.32v-51.99c0-5.69 4.63-10.32 10.32-10.32h50.9c5.69 0 10.32 4.63 10.32 10.32z"/>
    <ns1:path xmlns:ns1="http://www.w3.org/2000/svg" d="m116.23 146.68c-1.36-0.86-2.83-1.29-4.41-1.29-2.22 0-4.11 0.77-5.66 2.31s-2.33 3.65-2.33 6.33 0.75 4.64 2.25 6.13c1.5 1.5 3.28 2.24 5.35 2.24 1.14 0 2.26-0.3 3.35-0.91 1.1-0.6 1.97-1.43 2.62-2.46v0.63c0 2-0.3 3.75-0.89 5.25s-1.31 2.54-2.16 3.13-1.8 0.88-2.84 0.88c-2.33 0-3.74-1.35-4.22-4.05l-3 0.28c0.25 2.06 1.03 3.63 2.32 4.72s2.9 1.63 4.83 1.63c1.7 0 3.24-0.45 4.61-1.34s2.46-2.31 3.26-4.26c0.8-1.94 1.2-4.67 1.2-8.18 0-3.15-0.37-5.57-1.12-7.24-0.75-1.68-1.8-2.94-3.16-3.8zm-0.62 11.44c-0.96 1-2.13 1.5-3.51 1.5s-2.59-0.5-3.59-1.49-1.5-2.33-1.5-4.01c0-1.86 0.52-3.36 1.57-4.47 1.05-1.12 2.24-1.68 3.58-1.68s2.42 0.52 3.4 1.57c0.99 1.05 1.48 2.49 1.48 4.32s-0.48 3.26-1.44 4.26z"/>
  </g>
</svg>
