<?xml version="1.0" encoding="UTF-8"?>
<svg width="20.635mm" height="20.381mm" version="1.1" viewBox="0 0 20.635 20.381" xmlns="http://www.w3.org/2000/svg"><g transform="translate(-147.11 -146.58)"><path transform="scale(.96052 1.0411)" d="m161.65 152.82q0.76687 0.59325 1.7315 0.59325 0.7717 0 1.2202-0.37621 0.45338-0.38102 0.45338-1.0177 0-1.418-2.0305-1.418h-0.62219v-0.78134h0.59325q1.799 0 1.799-1.3312 0-1.2299-1.3746-1.2299-0.78618 0-1.4807 0.53055v-0.89228q0.73312-0.42444 1.7122-0.42444 0.95498 0 1.5338 0.50161 0.57878 0.49678 0.57878 1.2926 0 1.4662-1.4952 1.8858v0.0193q0.81028 0.0868 1.2781 0.57395 0.47266 0.48231 0.47266 1.2058 0 1.008-0.72829 1.6254-0.72347 0.61737-1.9292 0.61737-1.0611 0-1.7122-0.3955z" stroke-width=".33052" aria-label="3"/></g></svg>
