<?xml version="1.0" encoding="UTF-8"?>
<svg width="118.99" height="73.96" version="1.1" viewBox="0 0 118.99 73.96" xmlns="http://www.w3.org/2000/svg"><g transform="translate(-891.49 -22.82)"><path d="m953.48 52.75v7.0508h-27.031v7h27.031v7l16.98-10.432-16.98-10.619zm-44.01 7.0508v7h6.5527v-7h-6.5527zm8.5527 0v7h6.4258v-7h-6.4258z"/><path d="m982.26 76.16c2.74 0 4.81-1.12 6.2-3.35s2.09-5.5 2.09-9.8c0-4.79-0.84-8.28-2.53-10.46-1.39-1.8-3.3-2.71-5.72-2.71-2.73 0-4.79 1.11-6.19 3.34s-2.1 5.5-2.1 9.83c0 4.83 0.77 8.23 2.31 10.2s3.52 2.95 5.94 2.95zm-3.64-21.55c0.95-1.44 2.13-2.16 3.54-2.16 1.54 0 2.79 0.71 3.75 2.13 0.97 1.42 1.45 4.23 1.45 8.43s-0.48 6.95-1.44 8.39-2.15 2.16-3.57 2.16c-1.51 0-2.74-0.71-3.71-2.14-0.96-1.43-1.45-4.23-1.45-8.42s0.48-6.95 1.43-8.39z"/></g></svg>
