<?xml version="1.0" encoding="UTF-8"?>
<svg width="118.01" height="75.03" version="1.1" viewBox="0 0 118.01 75.03" xmlns="http://www.w3.org/2000/svg"><g transform="translate(-683.47 -22.77)"><path d="m746.47 63.79v4.04h2v-4.02c5.69-0.42 10.23-5.14 10.56-11.01h4.44v-2h-4.48c-0.61-5.57-5.03-9.97-10.52-10.37v-4.64h-2v4.66c-5.31 0.57-9.55 4.9-10.15 10.35h-4.83v2h4.78c0.32 5.75 4.67 10.4 10.19 10.99zm-8.19-10.99h8.19v8.97c-4.42-0.58-7.88-4.33-8.19-8.97zm10.19 9.01v-9.01h8.56c-0.32 4.77-3.97 8.6-8.56 9.01zm8.5-11.01h-8.5v-8.37c4.38 0.39 7.91 3.9 8.5 8.37zm-10.5-8.33v8.32h-8.13c0.57-4.34 3.92-7.77 8.13-8.32z"/><polygon points="754.8 81.42 765.41 76.23 755.2 70.22 756.49 74.78 724.48 74.8 724.48 44.6 727.95 45.81 722.74 35.49 717.57 45.84 721.48 44.52 721.48 77.8 756.34 77.78"/></g></svg>
