<?xml version="1.0" encoding="UTF-8" standalone="no"?>
<svg
   width="129.675"
   height="74.099998"
   version="1.1"
   viewBox="0 0 129.675 74.1"
   id="svg8"
   sodipodi:docname="sdm-function.svg"
   inkscape:version="1.4.2 (f4327f4, 2025-05-13)"
   xmlns:inkscape="http://www.inkscape.org/namespaces/inkscape"
   xmlns:sodipodi="http://sodipodi.sourceforge.net/DTD/sodipodi-0.dtd"
   xmlns="http://www.w3.org/2000/svg"
   xmlns:svg="http://www.w3.org/2000/svg">
  <defs
     id="defs8" />
  <sodipodi:namedview
     id="namedview8"
     pagecolor="#ffffff"
     bordercolor="#000000"
     borderopacity="0.25"
     inkscape:showpageshadow="2"
     inkscape:pageopacity="0.0"
     inkscape:pagecheckerboard="0"
     inkscape:deskcolor="#d1d1d1"
     inkscape:zoom="5.4453442"
     inkscape:cx="46.737174"
     inkscape:cy="32.229367"
     inkscape:window-width="1920"
     inkscape:window-height="1009"
     inkscape:window-x="-8"
     inkscape:window-y="-8"
     inkscape:window-maximized="1"
     inkscape:current-layer="svg8" />
  <g
     transform="translate(-1099.8,-220.14)"
     id="g8">
    <polygon
       points="1118.9,227.76 1111.1,242.01 1117.2,239.23 1117.2,283.75 1164.3,283.78 1161.7,289.5 1175.6,282.44 1161.8,275.06 1164.4,280.78 1120.2,280.76 1120.2,239.14 1125.6,241.61 "
       id="polygon1" />
    <path
       d="m 1156.4,243.48 c 3.42,0 6.21,-2.86 6.21,-6.37 0,-3.51 -2.78,-6.37 -6.21,-6.37 -3.43,0 -6.21,2.86 -6.21,6.37 0,3.51 2.78,6.37 6.21,6.37 z m 0,-10.73 c 2.32,0 4.21,1.96 4.21,4.37 0,2.41 -1.89,4.37 -4.21,4.37 -2.32,0 -4.21,-1.96 -4.21,-4.37 0,-2.41 1.89,-4.37 4.21,-4.37 z"
       id="path1" />
    <path
       d="m 1177,253.86 c 3.42,0 6.2,-2.86 6.2,-6.37 0,-3.51 -2.78,-6.37 -6.2,-6.37 -3.42,0 -6.21,2.86 -6.21,6.37 0,3.51 2.78,6.37 6.21,6.37 z m 0,-10.73 c 2.32,0 4.2,1.96 4.2,4.37 0,2.41 -1.89,4.37 -4.2,4.37 -2.31,0 -4.21,-1.96 -4.21,-4.37 0,-2.41 1.89,-4.37 4.21,-4.37 z"
       id="path2" />
    <path
       d="m 1138,272.14 c 3.42,0 6.21,-2.86 6.21,-6.37 0,-3.51 -2.78,-6.37 -6.21,-6.37 -3.43,0 -6.21,2.86 -6.21,6.37 0,3.51 2.78,6.37 6.21,6.37 z m 0,-10.73 c 2.32,0 4.21,1.96 4.21,4.37 0,2.41 -1.89,4.37 -4.21,4.37 -2.32,0 -4.21,-1.96 -4.21,-4.37 0,-2.41 1.89,-4.37 4.21,-4.37 z"
       id="path3" />
    <path
       d="m 1202.4,245.99 c 3.42,0 6.21,-2.86 6.21,-6.37 0,-3.51 -2.78,-6.37 -6.21,-6.37 -3.43,0 -6.2,2.86 -6.2,6.37 0,3.51 2.78,6.37 6.2,6.37 z m 0,-10.74 c 2.32,0 4.21,1.96 4.21,4.37 0,2.41 -1.89,4.37 -4.21,4.37 -2.32,0 -4.2,-1.96 -4.2,-4.37 0,-2.41 1.89,-4.37 4.2,-4.37 z"
       id="path4" />
    <g
       transform="matrix(1.4608,0,0,1.2732,-546.75,-71.794)"
       id="g7">
      <path
         d="m 1177.6,270.62 c -0.56,0.41 -1.35,0.62 -2.37,0.62 -0.71,0 -1.35,-0.12 -1.91,-0.37 -0.56,-0.25 -1,-0.57 -1.31,-0.97 -0.3,-0.4 -0.5,-0.97 -0.59,-1.69 l -1.61,0.14 c 0.04,1.37 0.53,2.45 1.48,3.25 0.95,0.8 2.22,1.2 3.82,1.2 1.03,0 1.9,-0.16 2.63,-0.48 0.73,-0.32 1.3,-0.79 1.73,-1.41 0.42,-0.62 0.63,-1.3 0.63,-2.05 0,-0.75 -0.2,-1.41 -0.6,-1.96 -0.4,-0.55 -1,-0.99 -1.79,-1.32 -0.52,-0.22 -1.41,-0.47 -2.69,-0.77 -1.3,-0.3 -2.14,-0.6 -2.52,-0.89 -0.37,-0.29 -0.56,-0.71 -0.56,-1.24 0,-0.57 0.25,-1.04 0.76,-1.4 0.51,-0.36 1.25,-0.54 2.22,-0.54 0.97,0 1.69,0.21 2.22,0.62 0.53,0.41 0.83,1.05 0.92,1.9 l 1.64,-0.13 c -0.03,-0.8 -0.24,-1.5 -0.64,-2.09 -0.4,-0.59 -0.96,-1.04 -1.68,-1.36 -0.72,-0.32 -1.56,-0.47 -2.52,-0.47 -1.4,0 -2.51,0.34 -3.33,1.01 -0.82,0.67 -1.24,1.54 -1.24,2.61 0,0.59 0.14,1.12 0.43,1.59 0.29,0.47 0.69,0.86 1.2,1.16 0.52,0.3 1.38,0.61 2.6,0.91 1.37,0.34 2.26,0.6 2.67,0.78 0.41,0.18 0.72,0.42 0.92,0.71 0.2,0.29 0.31,0.63 0.31,1.01 0,0.66 -0.28,1.2 -0.84,1.61 z"
         id="path5" />
      <path
         d="m 1183,272.58 h 4.67 c 1.33,0 2.4,-0.22 3.22,-0.65 0.82,-0.43 1.49,-1.17 2.02,-2.21 0.52,-1.04 0.79,-2.3 0.79,-3.79 0,-1.16 -0.15,-2.16 -0.46,-3.01 -0.31,-0.85 -0.74,-1.55 -1.29,-2.1 -0.55,-0.55 -1.2,-0.94 -1.96,-1.15 -0.57,-0.16 -1.41,-0.24 -2.52,-0.24 h -4.46 v 13.14 z m 1.71,-11.58 h 2.71 c 1,0 1.72,0.09 2.18,0.26 0.68,0.26 1.24,0.77 1.67,1.53 0.43,0.76 0.65,1.81 0.65,3.14 0,1.24 -0.2,2.31 -0.61,3.2 -0.31,0.67 -0.75,1.15 -1.32,1.46 -0.57,0.3 -1.42,0.45 -2.53,0.45 h -2.75 z"
         id="path6" />
      <path
         d="m 1203.6,268.59 c -0.31,0.92 -0.54,1.62 -0.69,2.11 l -0.61,-1.95 -3.07,-9.3 h -2.57 v 13.14 h 1.64 v -11.18 l 3.75,11.18 h 1.54 l 3.77,-10.99 v 10.99 h 1.65 v -13.14 h -2.3 l -3.1,9.14 z"
         id="path7" />
    </g>
  </g>
</svg>
