<?xml version="1.0" encoding="UTF-8"?>
<svg width="120.01" height="75.01" version="1.1" viewBox="0 0 120.01 75.01" xmlns="http://www.w3.org/2000/svg"><g transform="translate(-54.47 -21.8)"><path d="m149.05 49.54c-4.39 0-8.3994 2.4889-10.359 6.3789h-43.721c-2.43-3.43-6.3603-5.4688-10.57-5.4688-4.56 0-8.7003 2.3288-11.07 6.2188-0.14 0.23-0.14977 0.52172-0.0098 0.76172 0.14 0.24 0.38039 0.37891 0.65039 0.37891l0.0098-0.0098h10.57v8.9707h-9.3203c-0.28 0-0.53992 0.16016-0.66992 0.41016s-0.09945 0.5493 0.06055 0.7793c2.39 3.25 6.2298 5.1992 10.26 5.1992 3.78 0 7.3005-1.6493 9.7305-4.5293h44.67c1.93 1.88 4.3189 3.1802 6.8789 3.7402 0.12 0.04 0.24133 0.05984 0.36133 0.08984 0.88 0.18 1.8 0.26906 2.75 0.28906h0.35938c4.76-0.07 9.1989-2.4792 11.879-6.4492 0.16-0.23 0.17102-0.52953 0.041-0.76953-0.13-0.25-0.38016-0.40039-0.66016-0.40039h-12.49v-9.3809h9.5996c0.28 0 0.53015-0.14844 0.66015-0.39844s0.11117-0.54148-0.0488-0.77148c-2.16-3.15-5.7405-5.0391-9.5605-5.0391z"/></g></svg>
