<?xml version='1.0' encoding='UTF-8'?>
<svg xmlns="http://www.w3.org/2000/svg" version="1.1" viewBox="0 0 124.65999999999985 74.00999999999999" width="124.65999999999985" height="74.00999999999999">
  <g transform="translate(-1097.8400000000001, -318.8)">
    <ns0:path xmlns:ns0="http://www.w3.org/2000/svg" d="m1210.7 318.8h-101.05c-6.51 0-11.81 5.3-11.81 11.8v50.4c0 6.51 5.3 11.81 11.81 11.81h101.05c6.51 0 11.8-5.3 11.8-11.81v-50.4c0-6.51-5.3-11.8-11.8-11.8zm9.81 62.2c0 5.41-4.4 9.81-9.8 9.81h-101.05c-5.41 0-9.81-4.4-9.81-9.81v-50.4c0-5.41 4.4-9.8 9.81-9.8h101.05c5.41 0 9.8 4.4 9.8 9.8z"/>
    <ns1:path xmlns:ns1="http://www.w3.org/2000/svg" d="m1146.3 331.33-9.86-5.55-0.1 37.96 4.09-0.04v20.8l0.56 0.28c2.69 1.33 5.1 2 7.26 2 2.57 0 4.79-0.95 6.69-2.85l6.58 1.26 0.26-40.99-15.48-12.6v-0.26zm13.47 13.81-0.24 37.63-5.3-1.02-0.38 0.41c-2.83 3.1-6.37 3.45-11.41 1.08v-19.58l3.7-0.04 0.15-29.48 13.48 10.98z"/>
    <ns2:path xmlns:ns2="http://www.w3.org/2000/svg" d="m1175.5 346.98c-2.49 0-4.55 0.82-6.17 2.46s-2.44 4.07-2.44 7.29 0.82 5.64 2.46 7.29 3.69 2.47 6.15 2.47 4.56-0.82 6.18-2.46 2.43-4.14 2.43-7.49c0-3.09-0.82-5.46-2.47-7.1s-3.69-2.46-6.14-2.46zm3.85 15.12c-1.05 1.19-2.3 1.79-3.77 1.79-1.56 0-2.87-0.59-3.92-1.77s-1.58-2.98-1.58-5.39 0.52-4.18 1.56-5.37c1.04-1.18 2.3-1.78 3.78-1.78 1.56 0 2.87 0.59 3.92 1.77s1.58 2.97 1.58 5.38-0.52 4.19-1.57 5.38z"/>
    <ns3:path xmlns:ns3="http://www.w3.org/2000/svg" d="m1200 340.44c-0.75 0.39-1.32 0.95-1.68 1.68s-0.55 1.83-0.55 3.3v1.99h-6.1v-1.72c0-1.14 0.2-1.91 0.6-2.31s1.07-0.61 1.99-0.61c0.58 0 1.19 0.06 1.83 0.18l0.46-2.74c-1.06-0.22-2.03-0.33-2.92-0.33-1.14 0-2.09 0.19-2.84 0.58s-1.32 0.95-1.68 1.68-0.55 1.83-0.55 3.3v1.99h-2.76v2.46h2.76v16.21h3.1v-16.21h6.1v16.21h3.1v-16.21h3.59v-2.46h-3.59v-1.72c0-1.14 0.2-1.91 0.6-2.31s1.07-0.61 1.99-0.61c0.58 0 1.19 0.06 1.83 0.18l0.46-2.74c-1.06-0.22-2.03-0.33-2.92-0.33-1.14 0-2.09 0.19-2.84 0.58z"/>
  </g>
</svg>
