<svg width="342.35mm" height="36.387mm" version="1.1" viewBox="0 0 342.35 36.387" xml:space="preserve" xmlns="http://www.w3.org/2000/svg"><g transform="translate(107.76 -170.39)" stroke="#fff"><path d="m-65.953 206.63c-4.3771-0.27525-9.0848-1.5521-12.798-3.471-2.3005-1.1889-3.9623-2.4077-5.5678-4.0831-1.6293-1.7003-2.7184-3.5203-3.1262-5.2243-0.29467-1.2313-0.22121-2.5467 0.20522-3.6748 0.39748-1.0515 0.85729-1.7508 1.7309-2.6327 1.1324-1.1431 2.6914-2.0576 4.6629-2.7353 2.1044-0.72331 3.5878-0.88747 7.3713-0.81569 3.0268 0.0574 3.765 0.14704 6.0952 0.74004 3.7018 0.94204 7.1392 2.2717 8.97 3.4697 0.71004 0.46464 0.72748 0.48451 0.50604 0.57669-0.15173 0.0632-4.339 0.11742-12.374 0.16034-13.938 0.0744-16.045 0.12738-15.776 0.39633 0.09967 0.0997 3.9539 2.1742 7.09 3.8163l3.3666 1.7627 10.343-8e-3c5.6884-4e-3 13.965-0.0384 18.393-0.0757 4.4279-0.0373 9.036 2e-3 9.0284 0.028-0.48562 1.6287-1.0915 2.7926-1.6044 4.5524l-2.3861 0.0428c-0.87368 0.0157-2.7055 0.0656-4.0718 0.0721-1.3663 7e-3 -3.0789 0.0377-3.8058 0.0693l-1.3216 0.0574-0.2074 0.57361c-0.58192 1.6094-2.0173 3.2101-3.8855 4.3329-2.5647 1.5414-6.6954 2.3304-10.837 2.0699z" fill="#0094b8" stroke-width=".18402"/><g fill="#0094ba" stroke-width="1.9671"><path transform="scale(.26458)" d="m802.1 769.15c-17.641-7.2027-21.36-26.021-7.706-38.995 7.6321-7.2524 15.765-9.8758 38.979-12.573 18.286-2.1248 22.497-3.5533 26.007-8.8234 2.7447-4.1208 2.7994-6.3683 0.24233-9.9594-2.6502-3.7218-7.6885-5.2795-17.266-5.3379-7.0241-0.0429-8.4014 0.25772-11.957 2.6096-2.4706 1.6342-4.695 4.1914-5.7749 6.6391l-1.7564 3.9811h-24.248l0.65123-2.7048c2.0719-8.6053 9.0172-16.994 17.582-21.237 8.5886-4.2544 12.908-5.0119 28.524-5.0026 12.895 8e-3 15.441 0.28219 20.211 2.1787 8.254 3.2816 14.304 7.5124 17.362 12.141 2.5738 3.8963 2.7489 4.8147 2.6828 14.068-0.0571 7.9904-0.88183 13.41-4.2754 28.096-2.5185 10.899-4.4174 21.844-4.7352 27.294l-0.53056 9.098h-27.272v-3.9343c0-4.8881-1.4785-5.084-7.7922-1.0326-9.8744 6.3364-27.985 7.962-38.927 3.4942zm35.977-14.404c2.0609-0.61748 5.3012-2.4037 7.2006-3.9693 4.2004-3.4624 9.2068-13.337 10.089-19.898 0.63737-4.7433 0.60748-4.8157-1.7194-4.1647-1.3024 0.36438-9.0071 1.8076-17.122 3.2071-9.1842 1.584-15.969 3.2848-17.974 4.5056-8.2612 5.0304-8.176 16.405 0.15004 20.029 3.7799 1.6451 14.327 1.8033 19.376 0.29064z"/><path transform="scale(.26458)" d="m712.13 770.03c-7.045-1.8932-12.597-5.2199-17.184-10.297-6.1174-6.7712-7.7851-11.649-8.2149-24.026-0.6545-18.85 3.7746-31.074 15.513-42.812 10.987-10.987 23.01-15.658 40.392-15.694 10.161-0.0207 17.734 1.829 26.633 6.505 9.138 4.8019 14.535 12.402 16.2 22.81l0.66646 4.1678-26.018-0.5507-1.6292-4.8951c-1.9302-5.7995-5.7574-8.8037-12.504-9.8155-19.392-2.908-33.362 12.775-33.256 37.333 0.0636 14.71 4.175 20.07 16.039 20.909 11.688 0.82713 18.231-2.4265 23.405-11.64l2.7192-4.8415 11.885-1e-3c6.5366-5.5e-4 12.17 0.28448 12.519 0.6334 1.0479 1.0479-5.9079 13.32-10.523 18.566-9.0632 10.302-22.458 15.274-40.84 15.159-5.8581-0.0364-12.773-0.69805-15.802-1.512z"/><path transform="scale(.26458)" d="m640.66 767.92c0.26595-0.94669 5.042-21.749 10.614-46.228l10.13-44.507h26.336l-0.67875 3.6884c-0.3733 2.0286-5.0685 22.499-10.434 45.49-5.3653 22.991-9.7565 42.134-9.7582 42.539-2e-3 0.40572-6.0081 0.73768-13.348 0.73768-12.238 0-13.304-0.14278-12.861-1.7212z"/><path transform="scale(.26458)" d="m605.88 769.97c-1.8934-0.25692-3.7515-0.76753-4.1292-1.1347-0.3777-0.36715 1.6614-10.848 4.5313-23.29 8.4086-36.454 9.0906-44.06 4.2239-47.108-3.3294-2.0856-8.4759-2.643-14.82-1.605-6.7507 1.1045-14.799 6.5582-18.962 12.849-2.4609 3.7187-8.488 25.143-14.171 50.372l-2.16 9.5898h-26.055l1.6741-8.1145c0.92078-4.463 5.5882-25.265 10.372-46.228l8.6979-38.113h13.104c14.637 0 13.977-0.40447 12.019 7.3736-0.59694 2.3707-0.92863 4.7805-0.73707 5.3552 0.19155 0.57467 2.561-0.55696 5.2655-2.5147 2.7045-1.9578 7.717-4.8929 11.139-6.5225 5.8244-2.7738 6.9596-2.9629 17.779-2.9629 13.281 0 16.646 1.0915 22.151 7.1854 8.1363 9.0059 7.4426 18.131-5.3538 70.43-1.7006 6.9502-3.3995 12.958-3.7755 13.352-0.8655 0.90539-16.218 1.7081-20.794 1.0872z"/><path transform="scale(.26458)" d="m460.22 770.19c-7.0722-1.9509-16.462-7.4099-20.143-11.71-5.2693-6.156-7.5998-13.364-7.6794-23.753-0.21717-28.341 16.833-49.866 44.333-55.968 12.209-2.7093 23.533-1.9198 35.247 2.4574 4.3212 1.6147 7.4469 3.7714 11.856 8.1803 7.9522 7.9522 10.251 13.898 10.217 26.433-0.0301 11.35-1.058 15.877-5.8715 25.857-6.6588 13.806-19.346 23.762-35.84 28.121-8.0218 2.1204-25.081 2.323-32.119 0.38151zm27.021-17.486c8.5561-2.5409 17.864-15.804 20.349-28.997 3.6848-19.559-7.0846-31.582-24.964-27.871-6.7019 1.3913-12.143 5.205-16.23 11.375-8.7351 13.188-10.465 30.902-3.9149 40.1 4.1542 5.8341 15.183 8.2358 24.76 5.3918z"/><path transform="scale(.26458)" d="m357.7 769.97c-2.6706-0.45191-2.7521-0.63044-2.0884-4.5779 1.3815-8.2172 12.333-54.439 14.373-60.663 3.4842-10.63 9.3146-17.656 19.944-24.034l5.8436-3.506h20.99c15.892 0 21.101 0.29861 21.448 1.2295 0.25186 0.6762-0.54776 5.4342-1.7769 10.573l-2.2348 9.3439-9.8109 0.77218c-17.176 1.3519-24.625 4.9026-28.753 13.707-1.8679 3.9833-8.9728 30.717-12.542 47.193-0.90267 4.1665-2.3112 8.1315-3.1301 8.8111-1.5212 1.2624-16.902 2.0578-22.26 1.1512z"/><path transform="scale(.26458)" d="m311.96 769.95c-5.6024-1.9811-10.636-7.1364-12.033-12.324-1.4371-5.3371-0.89125-9.2319 5.0356-35.928 2.6717-12.034 4.8577-22.712 4.8577-23.729 0-2.1634-3.3978-3.0782-11.434-3.0782-5.7422 0-5.8799-0.18628-4.3606-5.9014 0.50332-1.8934 1.4031-5.3236 1.9996-7.6227 1.0794-4.1607 1.1061-4.1804 5.7185-4.2357 6.1408-0.0736 10.929-1.8471 13.128-4.8623 0.98615-1.3524 2.8409-6.4424 4.1217-11.311l2.3287-8.8521 12.937-0.27444c10.002-0.21218 12.932 0.011 12.916 0.98357-0.0117 0.69191-0.89692 5.219-1.9671 10.06-2.3525 10.642-2.4178 12.936-0.39006 13.715 0.8557 0.32836 7.3377 0.59701 14.404 0.59701h12.849l-5.036 5.3248c-2.7698 2.9286-5.7664 6.8566-6.6592 8.7287l-1.6232 3.4039-10.207 0.45395c-5.6138 0.24967-10.439 0.68567-10.722 0.96889-0.86881 0.8688-9.3551 39.291-9.9684 45.133-0.35445 3.3762-0.13911 6.3077 0.55917 7.6125 1.7491 3.2681 6.6036 5.3209 11.637 4.9206l4.4108-0.35081-0.58709 4.9952c-1.0099 8.5929-2.3131 11.098-6.3574 12.221-5.3674 1.4908-20.601 1.1041-25.558-0.64874z"/><path transform="scale(.26458)" d="m213.67 769.71c-17.739-5.0729-25.284-16.148-25.173-36.951 0.0946-17.729 4.8833-29.625 16.238-40.336 11.171-10.538 23.162-15.182 39.299-15.218 14.001-0.0319 26.009 3.9081 34.049 11.172 4.0854 3.6909 8.4143 12.111 9.5434 18.564l0.64548 3.6884h-26.238l-1.1992-4.4839c-1.5745-5.8869-5.0019-8.92-11.636-10.297-20.016-4.1552-34.715 11.881-34.77 37.932-0.0165 7.8462 2.5373 14.22 6.9981 17.467 2.9107 2.1185 13.2 3.3296 19.017 2.2384 4.3248-0.81134 10.492-6.1322 13.953-12.038l2.498-4.2624h12.201c8.2846 0 12.201 0.35046 12.201 1.0918 0 2.5444-6.7793 13.511-11.516 18.628-5.9462 6.4246-14.075 11.086-23.001 13.19-8.7073 2.0525-25.26 1.8596-33.111-0.38574z"/><path transform="scale(.26458)" d="m40.08 769.91c-2.2656-0.23699-3.6884-0.90198-3.6884-1.7239 0-3.0014 27.687-121.05 28.607-121.97 1.0521-1.0521 24.081-1.2597 25.114-0.22634 0.54046 0.54046-13.157 61.425-23.89 106.19l-4.4217 18.442-9.0161-0.16534c-4.9589-0.0909-10.676-0.33896-12.705-0.55116z"/><path transform="scale(.26458)" d="m-35.385 770.03c-10.953-2.9432-19.192-9.4226-23.747-18.675-5.6343-11.445-5.0779-30.387 1.2685-43.188 6.6691-13.452 16.67-22.562 30.815-28.069 5.0155-1.9526 7.7471-2.3069 18.196-2.3598 11.111-0.0562 13.005 0.20122 19.671 2.6746 13.127 4.8702 20.752 12.376 24.132 23.752 1.6093 5.4174 1.9354 21.859 0.4792 24.165-0.78676 1.246-5.3342 1.5139-29.246 1.7233l-28.315 0.24796-5.7361-7.3788c-3.1549-4.0584-6.3222-7.3788-7.0386-7.3788-2.1633 0-4.7032 21.972-2.9594 26.574 2.6464 6.9833 10.333 11.729 19.554 11.764 8.3388 0.0311 12.971-1.7058 18.829-7.0597l5.1661-4.7216h24.928l-2.7662 5.0992c-6.4752 11.936-17.451 20.191-30.533 22.963-8.5504 1.8119-25.724 1.7427-32.699-0.13161zm46.182-58.175c-0.02496-4.2618-2.7621-10.782-5.5756-13.281-2.5298-2.2474-12.194-4.0038-17.374-3.1578-9.8069 1.6015-17.599 7.1918-21.65 15.532l-1.515 3.1194 9.0522 0.54941c4.9787 0.30217 15.359 0.63413 23.068 0.73768l14.016 0.18827z"/></g><g><path transform="scale(.26458)" d="m668.07 663.38c-1.9929-0.80059-2.1592-1.3406-1.5715-5.1014 0.36152-2.3133 1.1595-5.9657 1.7733-8.1164 1.0214-3.5788 1.485-3.9833 5.4678-4.771 2.3935-0.47333 8.0204-0.55502 12.504-0.18152 9.4272 0.78528 9.2898 0.5469 6.1576 10.688-1.8651 6.0384-2.2327 6.5243-5.6555 7.4749-4.4462 1.2348-15.61 1.2394-18.676 8e-3z" fill="#ffb600" stroke-width="1.9671"/><path d="m-102.91 206c-2.4035-0.19212-3.4696-0.73909-4.1889-2.1492-0.70037-1.3728-0.66714-1.6277 1.4528-11.141 3.426-15.374 3.7986-16.597 5.4225-17.802l0.73465-0.54494h32.055c25.502 0 32.283 0.0689 33.168 0.33722 0.80239 0.2431 1.3365 0.64254 1.9139 1.4313 0.75863 1.0364 0.79383 1.191 0.66745 2.9307-0.14067 1.9364-2.367 12.02-3.4582 15.664-0.71943 2.402-2.4422 4.8152-3.6034 4.8152-0.78362 0-0.28711-0.77864 0.4775-3.2567l0.62336-2.0203-1.5993-1.4436c-4.9623-4.4792-13.718-8.9881-21.756-11.203-5.3006-1.4609-8.6537-1.953-14.325-2.102-10.745-0.28247-19.193 1.9604-24.331 6.4602-2.4409 2.1374-4.0345 5.827-4.0345 9.3409 0 3.4349 1.0688 6.0346 3.8089 9.2646l1.4091 1.661-1.2428-0.0431c-0.68352-0.0237-2.1211-0.1133-3.1945-0.19912z" fill="#ffb600" stroke-width=".52047"/><path d="m28.757 203.73c-2.8979-0.77874-5.0778-2.4931-6.283-4.9412-1.4907-3.0281-1.3435-8.04 0.33562-11.427 1.7645-3.5592 4.4107-5.9695 8.153-7.4265 1.327-0.51663 2.0497-0.61036 4.8144-0.62435 2.9398-0.0149 3.4408 0.0532 5.2047 0.70766 3.4731 1.2886 5.4907 3.2744 6.3849 6.2844 0.4258 1.4334 0.51206 5.7835 0.12679 6.3936-0.20816 0.32966-1.4113 0.40055-7.738 0.45596l-7.4916 0.0656-1.5177-1.9523c-0.83472-1.0738-1.6728-1.9523-1.8623-1.9523-0.57237 0-1.2444 5.8135-0.78302 7.031 0.7002 1.8477 2.7339 3.1034 5.1737 3.1125 2.2063 8e-3 3.432-0.45132 4.982-1.8679l1.3669-1.2492h6.5955l-0.73189 1.3492c-1.7132 3.1582-4.6171 5.3421-8.0784 6.0756-2.2623 0.47939-6.8062 0.4611-8.6517-0.0348zm12.219-15.392c-0.0066-1.1276-0.7308-2.8526-1.4752-3.5139-0.66933-0.59461-3.2262-1.0593-4.5969-0.83549-2.5947 0.42372-4.6564 1.9028-5.7281 4.1096l-0.40084 0.82534 2.3951 0.14537c1.3173 0.08 4.0638 0.16778 6.1034 0.19517l3.7084 0.0498z" fill="#0094ba" stroke-width=".52047"/></g></g></svg>
