<?xml version="1.0" encoding="UTF-8"?>
<svg width="77.47" height="77" version="1.1" viewBox="0 0 77.47 77" xmlns="http://www.w3.org/2000/svg"><g transform="translate(-912.03 -119.81)"><path d="m952.8 167.54c-1.2 1.06-2.65 1.59-4.34 1.59-2.16 0-3.93-0.79-5.31-2.39-1.38-1.59-2.07-4.16-2.07-7.72s0.72-5.96 2.16-7.54 3.26-2.37 5.46-2.37c1.47 0 2.73 0.44 3.78 1.31s1.79 2.19 2.21 3.95l4.33-0.64c-0.52-2.75-1.72-4.82-3.58-6.2-1.87-1.38-4.16-2.07-6.88-2.07-3.53 0-6.42 1.14-8.67 3.41s-3.37 5.68-3.37 10.22 1.11 7.92 3.34 10.22 5.07 3.46 8.52 3.46 2.84 0 5.28-0.82 7.31-2.46s3.29-4.02 3.8-7.13l-4.39-0.57c-0.32 2.23-1.08 3.87-2.28 4.93z"/></g></svg>
