<?xml version="1.0" encoding="UTF-8"?>
<svg width="20.635mm" height="20.381mm" version="1.1" viewBox="0 0 20.635 20.381" xmlns="http://www.w3.org/2000/svg"><g transform="translate(-147.11 -146.58)"><path d="m157.85 149.34-0.037 1.487-7.4612-0.0265c-0.22225 0-0.43392 0.0847-0.59267 0.24077-0.15875 0.15611-0.2487 0.36778-0.2487 0.59267l-0.0265 9.2578v3e-3c0 0.45773 0.37306 0.83344 0.83343 0.83608l7.4507 0.0317-8e-3 1.6219v5e-3c0 0.39423 0.24077 0.73025 0.61384 0.86254 0.37571 0.13229 0.77787 0.0132 1.0239-0.29898l5.9849-7.6015-5.9425-7.538c-0.23548-0.29898-0.62177-0.41275-0.98425-0.29368-0.35984 0.11906-0.59796 0.44185-0.60854 0.8202zm6.1886 7.0115-5.2149 6.6225 0.0106-2.2675-8.2894-0.037 0.0238-8.8133 8.2762 0.0318 0.0503-2.0585 5.1408 6.5193z" stroke-width=".26458"/><path transform="scale(.96052 1.0411)" d="m165.87 147.56q-0.5836-0.29904-1.2203-0.29904-0.96945 0-1.5579 0.84405t-0.59807 2.3055h0.0241q0.53054-1.0273 1.6929-1.0273 0.96945 0 1.5482 0.63183 0.57878 0.63183 0.57878 1.6784 0 1.0948-0.67042 1.799-0.66559 0.70418-1.7026 0.70418-1.1383 0-1.7894-0.88746-0.6463-0.89228-0.6463-2.5273 0-1.9775 0.84887-3.1399 0.85369-1.1672 2.2428-1.1672 0.79582 0 1.2492 0.21705zm-3.3183 4.0659q0 0.73794 0.39068 1.2637 0.39549 0.52572 1.0466 0.52572 0.61737 0 1.0032-0.45338 0.38585-0.45337 0.38585-1.1672 0-0.7717-0.36656-1.201-0.36174-0.42926-1.0322-0.42926-0.63666 0-1.0322 0.43408-0.3955 0.43408-0.3955 1.0273z" stroke-width=".33052" aria-label="6"/></g></svg>
